<svg width="22" height="22" viewBox="0 0 22 22" fill="none" xmlns="http://www.w3.org/2000/svg">
<path d="M7.82308 4.73746L13.9994 10.967L7.76984 17.1428C7.59714 17.3138 7.59626 17.5925 7.7672 17.765C7.93814 17.9375 8.21688 17.9386 8.38914 17.7676L14.8677 11.3449C14.9487 11.2646 14.9916 11.1612 14.9973 11.0563C14.999 11.0257 14.9971 10.9951 14.9927 10.965C14.9944 10.9531 14.9973 10.9417 14.9975 10.9298C15.0039 10.8101 14.9619 10.688 14.8708 10.5965L8.44766 4.11816C8.27672 3.94546 7.9982 3.94436 7.8255 4.11552C7.6528 4.28668 7.65192 4.5652 7.82308 4.73746Z" fill="white" stroke="white"/>
</svg>
