<svg width="40" height="40" viewBox="0 0 40 40" fill="none" xmlns="http://www.w3.org/2000/svg">
<rect width="40" height="40" rx="10" fill="#F9F9FB"/>
<path d="M21 12C21 10.3431 22.3431 9 24 9H28C29.6569 9 31 10.3431 31 12V16C31 17.6569 29.6569 19 28 19H24C22.3431 19 21 17.6569 21 16V12Z" fill="#59B077"/>
<path d="M8 25C8 23.3431 9.34315 22 11 22H15C16.6569 22 18 23.3431 18 25V29C18 30.6569 16.6569 32 15 32H11C9.34315 32 8 30.6569 8 29V25Z" fill="#59B077"/>
<path d="M21 27C21 24.2386 23.2386 22 26 22C28.7614 22 31 24.2386 31 27C31 29.7614 28.7614 32 26 32C23.2386 32 21 29.7614 21 27Z" fill="#59B077"/>
<path d="M8 14C8 11.2386 10.2386 9 13 9C15.7614 9 18 11.2386 18 14C18 16.7614 15.7614 19 13 19C10.2386 19 8 16.7614 8 14Z" fill="#59B077"/>
</svg>
