<svg width="23" height="23" viewBox="0 0 23 23" fill="none" xmlns="http://www.w3.org/2000/svg">
<path d="M13 3C13 1.34315 14.3431 0 16 0H20C21.6569 0 23 1.34315 23 3V7C23 8.65685 21.6569 10 20 10H16C14.3431 10 13 8.65685 13 7V3Z" fill="#6A6A6A"/>
<path d="M0 16C0 14.3431 1.34315 13 3 13H7C8.65685 13 10 14.3431 10 16V20C10 21.6569 8.65685 23 7 23H3C1.34315 23 0 21.6569 0 20V16Z" fill="#6A6A6A"/>
<path d="M13 18C13 15.2386 15.2386 13 18 13C20.7614 13 23 15.2386 23 18C23 20.7614 20.7614 23 18 23C15.2386 23 13 20.7614 13 18Z" fill="#6A6A6A"/>
<path d="M0 5C0 2.23858 2.23858 0 5 0C7.76142 0 10 2.23858 10 5C10 7.76142 7.76142 10 5 10C2.23858 10 0 7.76142 0 5Z" fill="#6A6A6A"/>
</svg>
