<svg width="35" height="35" viewBox="0 0 35 35" fill="none" xmlns="http://www.w3.org/2000/svg">
<g clip-path="url(#clip0_2062_109)">
<path d="M28.0477 15.7911L28.8202 15.0187L26.5028 12.7013L22.2577 8.45618L19.9403 6.13879L19.1679 6.91125L17.6229 8.45618L4.00574 22.0734C3.29481 22.7843 2.77528 23.6661 2.48817 24.63L0.0682442 32.8605C-0.102654 33.4347 0.0545723 34.0568 0.485236 34.4806C0.9159 34.9044 1.53113 35.0616 2.10535 34.8976L10.329 32.4777C11.2929 32.1905 12.1747 31.671 12.8856 30.9601L26.5028 17.3429L28.0477 15.7911ZM10.9374 27.3029L10.3153 28.8546C10.0419 29.0665 9.73426 29.2238 9.40613 29.3263L4.06043 30.8986L5.6327 25.5597C5.7284 25.2247 5.89246 24.9171 6.10438 24.6505L7.65613 24.0284V26.2159C7.65613 26.8175 8.14832 27.3097 8.74988 27.3097H10.9374V27.3029ZM24.7938 1.27844L23.8095 2.26965L22.2645 3.81457L21.4852 4.58704L23.8026 6.90442L28.0477 11.1495L30.3651 13.4669L31.1376 12.6945L32.6825 11.1495L33.6737 10.1583C35.3827 8.44934 35.3827 5.68079 33.6737 3.9718L30.9872 1.27844C29.2782 -0.430542 26.5097 -0.430542 24.8007 1.27844H24.7938ZM21.5536 12.7628L11.7098 22.6066C11.286 23.0304 10.5888 23.0304 10.1649 22.6066C9.7411 22.1827 9.7411 21.4855 10.1649 21.0616L20.0087 11.2179C20.4325 10.7941 21.1298 10.7941 21.5536 11.2179C21.9774 11.6417 21.9774 12.339 21.5536 12.7628Z" fill="#6A6A6A"/>
</g>
<defs>
<clipPath id="clip0_2062_109">
<rect width="35" height="35" fill="white"/>
</clipPath>
</defs>
</svg>
