<svg width="35" height="35" viewBox="0 0 35 35" fill="none" xmlns="http://www.w3.org/2000/svg">
<path d="M19.7826 4.56522C19.7826 2.04392 21.8265 0 24.3478 0H30.4348C32.9561 0 35 2.04392 35 4.56522V10.6522C35 13.1735 32.9561 15.2174 30.4348 15.2174H24.3478C21.8265 15.2174 19.7826 13.1735 19.7826 10.6522V4.56522Z" fill="#6A6A6A"/>
<path d="M0 24.3478C0 21.8265 2.04392 19.7826 4.56522 19.7826H10.6522C13.1735 19.7826 15.2174 21.8265 15.2174 24.3478V30.4348C15.2174 32.9561 13.1735 35 10.6522 35H4.56522C2.04392 35 0 32.9561 0 30.4348V24.3478Z" fill="#6A6A6A"/>
<path d="M19.7826 27.3913C19.7826 23.1891 23.1891 19.7826 27.3913 19.7826C31.5935 19.7826 35 23.1891 35 27.3913C35 31.5935 31.5935 35 27.3913 35C23.1891 35 19.7826 31.5935 19.7826 27.3913Z" fill="#6A6A6A"/>
<path d="M0 7.6087C0 3.40653 3.40653 0 7.6087 0C11.8109 0 15.2174 3.40653 15.2174 7.6087C15.2174 11.8109 11.8109 15.2174 7.6087 15.2174C3.40653 15.2174 0 11.8109 0 7.6087Z" fill="#6A6A6A"/>
</svg>
