<svg width="23" height="23" viewBox="0 0 23 23" fill="none" xmlns="http://www.w3.org/2000/svg">
<g clip-path="url(#clip0_161_2)">
<path d="M18.431 10.377L18.9387 9.86938L17.4158 8.34653L14.6262 5.55688L13.1033 4.03403L12.5957 4.54165L11.5805 5.55688L2.63203 14.5053C2.16484 14.9725 1.82343 15.552 1.63476 16.1854L0.0445253 21.594C-0.0677794 21.9713 0.0355409 22.3801 0.318549 22.6586C0.601557 22.9372 1.00585 23.0405 1.3832 22.9327L6.7873 21.3424C7.4207 21.1538 8.00019 20.8124 8.46738 20.3452L17.4158 11.3967L18.431 10.377ZM7.1871 17.9418L6.77831 18.9616C6.59863 19.1008 6.39648 19.2041 6.18085 19.2715L2.66796 20.3047L3.70117 16.7963C3.76406 16.5762 3.87187 16.3741 4.01113 16.1989L5.03085 15.7901V17.2276C5.03085 17.6229 5.35429 17.9463 5.7496 17.9463H7.1871V17.9418ZM16.2928 0.840088L15.6459 1.49145L14.6307 2.50669L14.1185 3.01431L15.6414 4.53716L18.431 7.32681L19.9539 8.84966L20.4615 8.34204L21.4768 7.32681L22.1281 6.67544C23.2512 5.55239 23.2512 3.73306 22.1281 2.61001L20.3627 0.840088C19.2396 -0.282959 17.4203 -0.282959 16.2973 0.840088H16.2928ZM14.1635 8.38696L7.69472 14.8557C7.4162 15.1342 6.958 15.1342 6.67949 14.8557C6.40097 14.5772 6.40097 14.119 6.67949 13.8405L13.1482 7.37173C13.4268 7.09321 13.885 7.09321 14.1635 7.37173C14.442 7.65024 14.442 8.10845 14.1635 8.38696Z" fill="#6A6A6A"/>
</g>
<defs>
<clipPath id="clip0_161_2">
<rect width="23" height="23" fill="white"/>
</clipPath>
</defs>
</svg>
