<svg width="40" height="40" viewBox="0 0 40 40" fill="none" xmlns="http://www.w3.org/2000/svg">
<rect width="40" height="40" rx="10" fill="#F9F9FB"/>
<g clip-path="url(#clip0_2070_9)">
<path d="M27.4313 19.3771L27.9389 18.8695L26.4161 17.3467L23.6264 14.557L22.1036 13.0342L21.5959 13.5418L20.5807 14.557L11.6323 23.5054C11.1651 23.9726 10.8237 24.5521 10.635 25.1855L9.04477 30.5941C8.93246 30.9715 9.03579 31.3802 9.31879 31.6588C9.6018 31.9373 10.0061 32.0406 10.3834 31.9328L15.7875 30.3426C16.4209 30.1539 17.0004 29.8125 17.4676 29.3453L26.4161 20.3968L27.4313 19.3771ZM16.1873 26.942L15.7786 27.9617C15.5989 28.101 15.3967 28.2043 15.1811 28.2717L11.6682 29.3049L12.7014 25.7965C12.7643 25.5763 12.8721 25.3742 13.0114 25.199L14.0311 24.7902V26.2277C14.0311 26.623 14.3545 26.9465 14.7498 26.9465H16.1873V26.942ZM25.293 9.84021L24.6461 10.4916L23.6309 11.5068L23.1188 12.0144L24.6416 13.5373L27.4313 16.3269L28.9541 17.8498L29.4618 17.3422L30.477 16.3269L31.1284 15.6756C32.2514 14.5525 32.2514 12.7332 31.1284 11.6101L29.3629 9.84021C28.2399 8.71716 26.4206 8.71716 25.2975 9.84021H25.293ZM23.1637 17.3871L16.695 23.8558C16.4164 24.1343 15.9582 24.1343 15.6797 23.8558C15.4012 23.5773 15.4012 23.1191 15.6797 22.8406L22.1485 16.3719C22.427 16.0933 22.8852 16.0933 23.1637 16.3719C23.4422 16.6504 23.4422 17.1086 23.1637 17.3871Z" fill="#59B077"/>
</g>
<defs>
<clipPath id="clip0_2070_9">
<rect width="23" height="23" fill="white" transform="translate(9 9)"/>
</clipPath>
</defs>
</svg>
