<svg width="38" height="38" viewBox="0 0 38 38" fill="none" xmlns="http://www.w3.org/2000/svg">
<path d="M0 10C0 4.47715 4.47715 0 10 0H28C33.5228 0 38 4.47715 38 10V28C38 33.5228 33.5228 38 28 38H10C4.47715 38 0 33.5228 0 28V10Z" fill="#59B077"/>
<path d="M8.14286 6.33333C9.07084 6.33333 9.83568 7.03189 9.94021 7.93183L9.95238 8.14286V18.0476C9.95238 23.5705 14.4295 28.0476 19.9524 28.0476H29.8571C30.8565 28.0476 31.6667 28.8577 31.6667 29.8571C31.6667 30.7852 30.9681 31.55 30.0682 31.6545L29.8571 31.6667H9.95238C8.04449 31.6667 6.48142 30.1904 6.34326 28.3177L6.33333 28.0476V8.14286C6.33333 7.14349 7.14349 6.33333 8.14286 6.33333ZM15.381 17.1905C16.3089 17.1905 17.0738 17.889 17.1783 18.789L17.1905 19V22.619C17.1905 23.6184 16.3803 24.4286 15.381 24.4286C14.453 24.4286 13.6881 23.73 13.5836 22.8301L13.5714 22.619V19C13.5714 18.0006 14.3816 17.1905 15.381 17.1905ZM22.619 9.95238C23.6184 9.95238 24.4286 10.7625 24.4286 11.7619V22.619C24.4286 23.6184 23.6184 24.4286 22.619 24.4286C21.6197 24.4286 20.8095 23.6184 20.8095 22.619V11.7619C20.8095 10.7625 21.6197 9.95238 22.619 9.95238ZM29.8571 13.5714C30.8565 13.5714 31.6667 14.3816 31.6667 15.381V22.619C31.6667 23.6184 30.8565 24.4286 29.8571 24.4286C28.8577 24.4286 28.0476 23.6184 28.0476 22.619V15.381C28.0476 14.3816 28.8577 13.5714 29.8571 13.5714Z" fill="white"/>
</svg>
